HIERARCHY
ROOT RootJoint
{
    OFFSET   0.000000   0.000000   0.000000
    CHANNELS 6 Xposition Yposition Zposition Xrotation Yrotation Zrotation
    JOINT pelvis_lowerback
    {
        OFFSET   0.000000   0.093605   0.000000
        CHANNELS 3 Xrotation Yrotation Zrotation
        JOINT lowerback_torso
        {
            OFFSET   0.000000   0.100000   0.000000
            CHANNELS 3 Xrotation Yrotation Zrotation
            JOINT torso_head
            {
                OFFSET   0.000000   0.282350   0.000000
                CHANNELS 3 Xrotation Yrotation Zrotation
                End Site
                {
                    OFFSET   0.000000   0.192650   0.000000
                }
            }
            JOINT rTorso_Clavicle
            {
                OFFSET  -0.001000   0.157500   0.000000
                CHANNELS 3 Xrotation Yrotation Zrotation
                JOINT rShoulder
                {
                    OFFSET  -0.117647   0.000000   0.000000
                    CHANNELS 3 Xrotation Yrotation Zrotation
                    JOINT rElbow
                    {
                        OFFSET  -0.245000   0.000000   0.000000
                        CHANNELS 3 Xrotation Yrotation Zrotation
                        JOINT rWrist
                        {
                            OFFSET  -0.240000   0.000000   0.000000
                            CHANNELS 3 Xrotation Yrotation Zrotation
                            End Site
                            {
                                OFFSET  -0.116353  -0.002500   0.000000
                            }
                        }
                    }
                }
            }
            JOINT lTorso_Clavicle
            {
                OFFSET   0.001000   0.157500   0.000000
                CHANNELS 3 Xrotation Yrotation Zrotation
                JOINT lShoulder
                {
                    OFFSET   0.117647   0.000000   0.000000
                    CHANNELS 3 Xrotation Yrotation Zrotation
                    JOINT lElbow
                    {
                        OFFSET   0.245000   0.000000   0.000000
                        CHANNELS 3 Xrotation Yrotation Zrotation
                        JOINT lWrist
                        {
                            OFFSET   0.240000   0.000000   0.000000
                            CHANNELS 3 Xrotation Yrotation Zrotation
                            End Site
                            {
                                OFFSET   0.116353  -0.002500   0.000000
                            }
                        }
                    }
                }
            }
        }
    }
    JOINT rHip
    {
        OFFSET  -0.100000  -0.051395   0.000000
        CHANNELS 3 Xrotation Yrotation Zrotation
        JOINT rKnee
        {
            OFFSET   0.000000  -0.410000   0.000000
            CHANNELS 3 Xrotation Yrotation Zrotation
            JOINT rAnkle
            {
                OFFSET   0.000000  -0.390000   0.000000
                CHANNELS 3 Xrotation Yrotation Zrotation
                JOINT rToeJoint
                {
                    OFFSET   0.000000  -0.050000   0.130000
                    CHANNELS 3 Xrotation Yrotation Zrotation
                    End Site
                    {
                        OFFSET  -0.010000   0.002000   0.060000
                    }
                }
            }
        }
    }
    JOINT lHip
    {
        OFFSET   0.100000  -0.051395   0.000000
        CHANNELS 3 Xrotation Yrotation Zrotation
        JOINT lKnee
        {
            OFFSET   0.000000  -0.410000   0.000000
            CHANNELS 3 Xrotation Yrotation Zrotation
            JOINT lAnkle
            {
                OFFSET   0.000000  -0.390000   0.000000
                CHANNELS 3 Xrotation Yrotation Zrotation
                JOINT lToeJoint
                {
                    OFFSET   0.000000  -0.050000   0.130000
                    CHANNELS 3 Xrotation Yrotation Zrotation
                    End Site
                    {
                        OFFSET   0.010000   0.002000   0.060000
                    }
                }
            }
        }
    }
}
MOTION
Frames: 15
Frame Time:   0.008333
 -2.394479   0.904139   3.467560   7.144507   3.867022  -4.915510   1.107174  -7.083684   1.211776  -3.044624  -7.026051   5.061742  -1.441614   0.086265   3.573890  -4.081967 -17.085256  -1.011987 -17.760863  -5.345190  33.696540 179.999630  58.853799 179.999874   1.115126   7.507624 -14.279759   3.736979   2.422797   2.828446  14.037240 -13.658802 -42.261278   0.001567 -86.312388   0.001809   6.231188  -8.042805   3.606986 -28.406139   0.813446   1.014611  17.961943  -0.000905   0.004128  -6.923940  -3.700731   7.452800  -1.043008  -0.000041   0.000154   7.834892  -0.042625   1.495276   2.163833  -0.001065  -0.001456 -14.434249   5.178530   7.709251  -6.319186   0.003748   0.012130
 -2.394215   0.902695   3.465560   7.285887   4.064548  -5.030872   1.081578  -7.207964   1.339766  -3.071822  -7.023238   5.068102  -1.504484   0.113619   3.545915  -4.129079 -17.082440  -1.022111 -17.887410  -5.334496  33.398120 179.999607  58.799241 179.999865   1.171348   7.511325 -14.435897   3.705746   2.428486   2.828297  14.069652 -13.671372 -42.284643   0.000939 -86.038874   0.001259   6.212983  -8.051183   3.709605 -28.652207   0.752092   1.137987  18.461802  -0.000986   0.004210  -7.155653  -3.764585   7.396902  -1.022438  -0.000038   0.000143   7.800924  -0.056150   1.566646   1.806671  -0.001055  -0.001715 -15.169054   5.255248   7.736538  -5.338323   0.003584   0.013067
 -2.393992   0.901208   3.463672   7.423593   4.271020  -5.145654   1.055797  -7.327033   1.458465  -3.094421  -7.022095   5.076950  -1.560955   0.139503   3.523284  -4.179905 -17.078283  -1.041570 -18.012515  -5.321198  33.112715 179.999590  58.746631 179.999865   1.230956   7.530173 -14.599635   3.678542   2.433026   2.827650  14.102178 -13.682422 -42.305218   0.000634 -85.778260   0.001026   6.193514  -8.030568   3.794093 -28.873916   0.691681   1.253532  18.947360  -0.001017   0.004283  -7.370817  -3.825022   7.344338  -1.002534  -0.000035   0.000136   7.770888  -0.062363   1.637572   1.460117  -0.001040  -0.001956 -15.909546   5.334866   7.764070  -4.441203   0.003410   0.013667
 -2.393804   0.899717   3.461890   7.562701   4.484658  -5.252681   1.028332  -7.438880   1.563813  -3.117959  -7.021351   5.082707  -1.613789   0.163601   3.503008  -4.228720 -17.074839  -1.061429 -18.130530  -5.307908  32.845195 179.999579  58.696638 179.999878   1.290655   7.556594 -14.762207   3.654364   2.437924   2.825082  14.133718 -13.692089 -42.324649   0.000623 -85.533422   0.001092   6.174210  -7.999697   3.869732 -29.073725   0.635674   1.355374  19.404171  -0.001008   0.004312  -7.571335  -3.881282   7.295040  -0.982942  -0.000032   0.000131   7.740022  -0.068365   1.701662   1.118369  -0.001019  -0.002167 -16.630022   5.410806   7.790189  -3.619490   0.003236   0.013886
 -2.393650   0.898242   3.460209   7.703910   4.703160  -5.352090   1.000303  -7.542711   1.657326  -3.142576  -7.019988   5.085038  -1.663632   0.186101   3.484050  -4.274532 -17.071681  -1.079219 -18.240748  -5.295007  32.595799 179.999571  58.649575 179.999901   1.349035   7.585670 -14.919522   3.632626   2.443153   2.820417  14.163811 -13.700899 -42.343680   0.000748 -85.304198   0.001293   6.155355  -7.965837   3.940296 -29.253895   0.583901   1.445485  19.831587  -0.000973   0.004294  -7.758379  -3.933661   7.248811  -0.964173  -0.000030   0.000127   7.706267  -0.075564   1.759242   0.782381  -0.000992  -0.002342 -17.322278   5.482050   7.814984  -2.866545   0.003052   0.013784
 -2.393212   0.898311   3.459574   7.748777   4.659315  -5.161398   0.914281  -7.543928   1.531514  -3.179962  -6.939369   5.003491  -1.703659   0.210686   3.462197  -4.281239 -17.074432  -0.971913 -18.305605  -5.292456  32.406747 179.999686  58.606103 179.999863   1.416773   7.655825 -14.936315   3.664863   2.500700   2.703034  14.237845 -13.685559 -42.397650   0.000783 -85.051869   0.001693   6.131895  -7.806756   3.933295 -29.273328   0.573014   1.377819  20.219237  -0.001179   0.003089  -7.930718  -3.980625   7.205233  -0.924655  -0.000040   0.000033   7.675439  -0.097396   1.507812   0.677059  -0.000838  -0.001842 -17.297589   5.497065   7.920603  -2.187072   0.002359   0.011008
 -2.392908   0.898532   3.459260   7.805708   4.685413  -5.121321   0.836434  -7.593646   1.563458  -3.219216  -6.890780   4.956749  -1.750160   0.231100   3.437529  -4.306807 -17.073444  -0.947262 -18.386327  -5.285773  32.208398 179.999773  58.567016 179.999822   1.467999   7.681067 -15.024699   3.692022   2.544623   2.628668  14.301372 -13.687396 -42.458328   0.000724 -84.839027   0.001693   6.106869  -7.701970   3.902680 -29.276491   0.527609   1.446140  20.611435  -0.001368   0.002492  -8.092881  -4.027579   7.164413  -0.905131  -0.000043   0.000010   7.610511  -0.036378   1.444142   0.646045  -0.000677  -0.001501 -17.330658   5.624684   7.990132  -1.555875   0.001577   0.010070
 -2.392697   0.898667   3.459279   7.831699   4.705812  -5.170597   0.748240  -7.631468   1.669020  -3.221265  -6.861207   4.947364  -1.780829   0.259500   3.438473  -4.346399 -17.054205  -0.930281 -18.512368  -5.298852  31.971543 179.999748  58.612226 179.999989   1.537400   7.742983 -15.118654   3.703734   2.582102   2.606299  14.374881 -13.710885 -42.563781   0.000574 -84.580774   0.001550   6.087998  -7.662608   3.902459 -29.263315   0.476999   1.621998  21.101512  -0.001673   0.002192  -8.323814  -4.118596   7.037825  -0.894423  -0.000034  -0.000002   7.568916   0.137406   1.491344   0.709080  -0.000540  -0.001095 -17.359528   5.869041   8.063477  -1.028544   0.000712   0.009967
 -2.392517   0.898725   3.459571   7.850421   4.733834  -5.233300   0.651432  -7.672599   1.779825  -3.227186  -6.839599   4.954913  -1.808739   0.285908   3.443801  -4.387001 -17.040514  -0.922235 -18.634057  -5.314399  31.744095 179.999698  58.662101 -179.999847   1.596835   7.767752 -15.235812   3.716202   2.618523   2.593034  14.446136 -13.730254 -42.658051   0.000968 -84.336489   0.001862   6.069102  -7.611700   3.896506 -29.236538   0.427629   1.807715  21.586971  -0.001895   0.002013  -8.539224  -4.203154   6.919365  -0.890113  -0.000027  -0.000005   7.540923   0.307163   1.557589   0.789662  -0.000433  -0.000741 -17.385456   6.100297   8.132460  -0.537928   0.000063   0.009690
 -2.392348   0.898715   3.460109   7.866402   4.763742  -5.292531   0.547150  -7.713890   1.885664  -3.242017  -6.822296   4.968635  -1.836048   0.310438   3.450145  -4.425331 -17.031376  -0.915913 -18.748143  -5.330643  31.530309 179.999646  58.709567 -179.999715   1.651489   7.781392 -15.359865   3.727345   2.654691   2.585832  14.513060 -13.745801 -42.742637   0.001677 -84.107835   0.002445   6.050835  -7.557253   3.894633 -29.201559   0.382043   1.984892  22.048164  -0.002020   0.001868  -8.740001  -4.281432   6.808574  -0.885266  -0.000022  -0.000007   7.522546   0.466483   1.621833   0.872728  -0.000347  -0.000460 -17.409086   6.316211   8.197124  -0.086531  -0.000386   0.009240
 -2.392184   0.898648   3.460879   7.879961   4.792013  -5.344210   0.438012  -7.753884   1.985355  -3.264833  -6.807440   4.985295  -1.862973   0.333276   3.456535  -4.461029 -17.024855  -0.909097 -18.854529  -5.346693  31.330726 179.999599  58.753949 -179.999617   1.703510   7.792611 -15.484156   3.736849   2.689967   2.582254  14.575233 -13.758641 -42.819452   0.002457 -83.894228   0.003081   6.033306  -7.503013   3.899446 -29.161405   0.340304   2.149849  22.481561  -0.002068   0.001725  -8.927333  -4.354043   6.704905  -0.880100  -0.000018  -0.000009   7.511836   0.615745   1.678559   0.955430  -0.000278  -0.000243 -17.430509   6.517892   8.257193   0.327787  -0.000678   0.008672
 -2.392028   0.898501   3.461860   7.892746   4.818287  -5.393425   0.326374  -7.792623   2.083486  -3.293628  -6.794691   5.005585  -1.889398   0.354537   3.462849  -4.494880 -17.019513  -0.903939 -18.954361  -5.361746  31.143988 179.999563  58.795323 -179.999548   1.753176   7.802634 -15.608094   3.744205   2.723488   2.583138  14.632277 -13.769796 -42.889199   0.003164 -83.695632   0.003638   6.016626  -7.453187   3.911179 -29.121388   0.301354   2.307016  22.887710  -0.002056   0.001590  -9.102242  -4.421457   6.607916  -0.875346  -0.000014  -0.000010   7.511120   0.755510   1.733923   1.045462  -0.000224  -0.000068 -17.448475   6.706178   8.312952   0.706496  -0.000863   0.008021
 -2.391882   0.898271   3.463041   7.905774   4.842093  -5.438345   0.213282  -7.830070   2.178220  -3.327284  -6.783778   5.028670  -1.915126   0.374333   3.469169  -4.526756 -17.015067  -0.899292 -19.047806  -5.375796  30.969573 179.999538  58.833826 -179.999504   1.800939   7.812707 -15.729803   3.749601   2.755097   2.587157  14.684527 -13.779518 -42.952507   0.003738 -83.510809   0.004067   6.000838  -7.407796   3.928934 -29.084229   0.265250   2.454140  23.266951  -0.001998   0.001457  -9.265580  -4.484055   6.517189  -0.870942  -0.000011  -0.000010   7.521501   0.886554   1.785830   1.139993  -0.000182   0.000069 -17.463709   6.881970   8.364788   1.053767  -0.000972   0.007334
 -2.391676   0.897921   3.464645   7.843352   4.710717  -5.502314   0.090429  -7.807722   2.309960  -3.306358  -6.720619   5.063872  -1.871173   0.421672   3.465594  -4.526571 -16.995367  -0.877606 -19.145661  -5.454777  30.851279 179.999001  58.980330 -179.998979   1.848908   7.926031 -15.782131   3.805232   2.791378   2.569842  14.771004 -13.763167 -43.098464   0.003301 -83.348424   0.003620   5.975443  -7.352744   4.006682 -28.942740   0.291193   2.682857  23.672675  -0.002012   0.001114  -9.578125  -4.575793   6.317613  -0.815289   0.000040  -0.000080   7.649981   0.974165   1.837729   1.266908  -0.000150  -0.000010 -17.675820   7.060152   8.407139   0.940361  -0.000766   0.005747
 -2.391421   0.897452   3.466478   7.784297   4.491781  -5.560756  -0.051373  -7.768359   2.447211  -3.287772  -6.638601   5.111492  -1.827166   0.467169   3.462641  -4.518428 -16.983659  -0.837398 -19.228904  -5.538762  30.748381 179.998462  59.129829 -179.998480   1.877434   7.974234 -15.828651   3.882665   2.849847   2.530317  14.873596 -13.742638 -43.253814   0.002599 -83.194146   0.002913   5.948273  -7.290646   4.043355 -28.780235   0.315183   2.916824  24.071402  -0.002037   0.000535  -9.871207  -4.660722   6.130866  -0.774233   0.000069  -0.000147   7.794345   1.043441   1.865981   1.401610  -0.000121  -0.000201 -17.912300   7.217244   8.444614   0.842073  -0.000631   0.004597
